{"title":"Rychly Prachy (Praha - 14.07.2013) - Nikola","uid":8694397,"size":602643405,"categoryP":"porn","categoryS":"movies","magnet":"?xt=urn:btih:63d658796b61744a761baba2be0f3ece1813d05e&amp;dn=Rychly+Prachy+%28Praha+-+14.07.2013%29+-+Nikola&amp;tr=udp%3A%2F%2Ftracker.openbittorrent.com%3A80&amp;tr=udp%3A%2F%2Fopen.demonii.com%3A1337&amp;tr=udp%3A%2F%2Ftracker.coppersurfer.tk%3A6969&amp;tr=udp%3A%2F%2Fexodus.desync.com%3A6969","seeders":0,"leechers":1,"uploader":"demon4700","files":3,"time":1373938354,"description":"\n                Rychly Prachy (PRAHA - 14.07.2013) - Nikola\n\n\n\nScreen:\n  &lt;a href=&quot;\nhttp://image.bayimg.com/e52b1d315a21802c1feacc376a15580fd4df812b.jpg&quot; rel=&quot;nofollow&quot; target=&quot;_NEW&quot;&gt;\nhttp://image.bayimg.com/e52b1d315a21802c1feacc376a15580fd4df812b.jpg&lt;/a&gt;\n\n\nOficial website:\n  &lt;a href=&quot;\nhttp://rychlyprachy.cz&quot; rel=&quot;nofollow&quot; target=&quot;_NEW&quot;&gt;\nhttp://rychlyprachy.cz&lt;/a&gt;\n\n\nDirect Link:\n  &lt;a href=&quot;\nhttp://rychlyprachy.cz/video67.cz.html&quot; rel=&quot;nofollow&quot; target=&quot;_NEW&quot;&gt;\nhttp://rychlyprachy.cz/video67.cz.html&lt;/a&gt;\n\n\nGeneral\nComplete name                            : Rychly Prachy (Praha - 14.07.2013) - Nikola.wmv\nFormat                                   : Windows Media\nFile size                                : 575 MiB\nDuration                                 : 25mn 24s\nOverall bit rate mode                    : Constant\nOverall bit rate                         : 3 162 Kbps\nMaximum Overall bit rate                 : 3 173 Kbps\nEncoded date                             : UTC 2013-07-14 16:37:32.508\nSfOriginalFPS                            : 300000\n\nVideo\nID                                       : 2\nFormat                                   : VC-1\nFormat profile                           : MP@ML\nCodec ID                                 : WMV3\nCodec ID/Info                            : Windows Media Video 9\nCodec ID/Hint                            : WMV3\nDescription of the codec                 : Windows Media Video 9 - Professional\nDuration                                 : 25mn 24s\nBit rate mode                            : Constant\nBit rate                                 : 3 050 Kbps\nWidth                                    : 640 pixels\nHeight                                   : 480 pixels\nDisplay aspect ratio                     : 4:3\nFrame rate                               : 30.000 fps\nColor space                              : YUV\nChroma subsampling                       : 4:2:0\nBit depth                                : 8 bits\nScan type                                : Progressive\nCompression mode                         : Lossy\nBits/(Pixel*Frame)                       : 0.331\nStream size                              : 554 MiB (96%)\nLanguage                                 : Czech\n\nAudio\nID                                       : 1\nFormat                                   : WMA\nFormat version                           : Version 2\nCodec ID                                 : 161\nCodec ID/Info                            : Windows Media Audio\nDescription of the codec                 : Windows Media Audio 9.2 -  96 kbps, 44 kHz, stereo (A/V) 1-pass CBR\nDuration                                 : 25mn 24s\nBit rate mode                            : Constant\nBit rate                                 : 96.0 Kbps\nChannel(s)                               : 2 channels\nSampling rate                            : 44.1 KHz\nBit depth                                : 16 bits\nStream size                              : 17.4 MiB (3%)\nLanguage                                 : Czech","torrent":{"xt":"urn:btih:63d658796b61744a761baba2be0f3ece1813d05e","amp;dn":"Rychly+Prachy+%28Praha+-+14.07.2013%29+-+Nikola","amp;tr":["udp%3A%2F%2Ftracker.openbittorrent.com%3A80","udp%3A%2F%2Fopen.demonii.com%3A1337","udp%3A%2F%2Ftracker.coppersurfer.tk%3A6969","udp%3A%2F%2Fexodus.desync.com%3A6969"],"infoHash":"63d658796b61744a761baba2be0f3ece1813d05e","infoHashBuffer":{"type":"Buffer","data":[99,214,88,121,107,97,116,74,118,27,171,162,190,15,62,206,24,19,208,94]},"announce":[],"urlList":[]}}